<?xml version='1.0' encoding='UTF-8'?>
<svg xmlns:dc="http://purl.org/dc/elements/1.1/" xmlns:cc="http://creativecommons.org/ns#" xmlns:rdf="http://www.w3.org/1999/02/22-rdf-syntax-ns#" xmlns:svg="http://www.w3.org/2000/svg" xmlns="http://www.w3.org/2000/svg" xmlns:sodipodi="http://sodipodi.sourceforge.net/DTD/sodipodi-0.dtd" xmlns:inkscape="http://www.inkscape.org/namespaces/inkscape" version="1.1" id="Logotype" x="0px" y="0px" width="4000px" height="3326px" viewBox="0 0 4000 3326" sodipodi:docname="source.svg" inkscape:version="0.92.3 (2405546, 2018-03-11)">
  <!--Creator: logaster.com--><metadata id="metadata47">
    <rdf:RDF>
      <cc:Work rdf:about="">
        <dc:format>image/svg+xml</dc:format>
        <dc:type rdf:resource="http://purl.org/dc/dcmitype/StillImage"/>
      </cc:Work>
    </rdf:RDF>
  </metadata>
  <sodipodi:namedview pagecolor="#ffffff" bordercolor="#666666" borderopacity="1" objecttolerance="10" gridtolerance="10" guidetolerance="10" inkscape:pageopacity="0" inkscape:pageshadow="2" inkscape:window-width="640" inkscape:window-height="480" id="namedview45" showgrid="false" inkscape:zoom="0.070956103" inkscape:cx="2000" inkscape:cy="1663" inkscape:window-x="0" inkscape:window-y="0" inkscape:window-maximized="0" inkscape:current-layer="Logotype"/>
  <!--Creator: logaster.com-->
  <defs id="defs2"/>
  <path style="fill:#132651;stroke-width:7.09334087" inkscape:connector-curvature="0" id="body1" d="M 912.57065,863.35641 H 3088.2189 a 8.0971196,8.0971196 0 1 0 0,-16.1941 H 912.57065 a 8.0971196,8.0971196 0 0 0 0,16.1941 z" class="cls-1"/>
  <path style="fill:#132651;stroke-width:7.09334087" inkscape:connector-curvature="0" id="body2" d="m 1017.9356,838.16689 h 1964.9192 a 5.3980324,5.3980324 0 0 0 0,-10.79606 H 1017.9356 a 5.3980324,5.3980324 0 1 0 0,10.79606 z" class="cls-1"/>
  <path style="fill:#132651;stroke-width:7.09334087" inkscape:connector-curvature="0" id="body3" d="m 1865.5885,603.18827 c 25.7701,9.25681 37.006,8.59713 55.5054,19.82589 -5.2845,-7.93036 -15.1939,-16.52039 -42.2905,-32.3811 a 62.976028,62.976028 0 0 1 -31.7214,-52.86667 c 0,-55.5054 42.9573,-55.5054 81.2826,-42.95018 -46.2628,-33.04078 -112.9973,-23.13139 -112.9973,38.985 a 73.874663,73.874663 0 0 0 50.2212,69.38706 z" class="cls-1"/>
  <path style="fill:#132651;stroke-width:7.09334087" inkscape:connector-curvature="0" id="body4" d="m 1930.3508,488.87178 a 66.813029,66.813029 0 0 1 -23.1314,-52.20699 c 0,-35.02692 33.7005,-53.52635 48.9015,-69.38706 15.201,-15.86071 44.9363,-33.70756 43.617,-89.87263 -9.2569,70.70642 -122.2538,88.54617 -122.2538,148.03093 0,31.70709 22.4645,52.85248 52.8667,63.43575 z" class="cls-1"/>
  <path style="fill:#132651;stroke-width:7.09334087" inkscape:connector-curvature="0" id="body5" d="m 2030.7997,748.58012 a 16.677863,16.677863 0 0 0 -17.1943,-17.18716 16.111602,16.111602 0 0 0 -15.1939,9.25681 16.108481,16.108481 0 0 0 -15.2011,-9.25681 16.870093,16.870093 0 0 0 -1.3122,33.70755 14.390119,14.390119 0 0 0 -0.6675,5.27745 17.069983,17.069983 0 0 0 17.1805,17.19426 17.50367,17.50367 0 0 0 17.1872,-17.19426 c 0,-1.97195 -0.6668,-3.2984 -0.6668,-4.61776 a 17.791589,17.791589 0 0 0 15.8678,-17.18008 z" class="cls-1"/>
  <path style="fill:#132651;stroke-width:7.09334087" inkscape:connector-curvature="0" id="body6" d="m 2153.7131,537.76624 a 61.42741,61.42741 0 0 1 -31.7285,52.86667 c -27.0895,15.86071 -37.006,24.45075 -41.6238,32.38111 18.4995,-11.22876 29.0756,-10.56908 54.8458,-19.82589 a 73.033038,73.033038 0 0 0 50.2208,-69.38706 c 0,-62.11639 -66.7483,-72.02579 -112.9969,-38.985 38.9918,-12.55529 81.2826,-12.55529 81.2826,42.95017 z" class="cls-1"/>
  <path style="fill:#132651;stroke-width:7.09334087" inkscape:connector-curvature="0" id="body7" d="m 2044.6742,367.27801 c 15.1939,15.86071 48.9086,34.36014 48.9086,69.38706 a 67.446252,67.446252 0 0 1 -22.4717,52.20699 c 29.7281,-10.58327 52.8595,-31.72852 52.8595,-63.43575 0,-59.48476 -112.9969,-77.32451 -122.2537,-148.03093 -1.9792,56.16493 28.416,74.01171 42.9573,89.87263 z" class="cls-1"/>
  <path style="fill:#132651;stroke-width:7.09334087" inkscape:connector-curvature="0" id="body8" d="m 1367.7376,740.75163 c -6.6039,37.00596 29.7424,65.42188 68.0748,72.03288 38.3254,6.61099 109.0318,-9.24972 197.585,-50.22086 11.2359,-5.29163 22.4717,-10.58326 33.7076,-15.20812 48.8944,25.11752 106.3859,52.87376 173.1343,64.10252 91.192,16.52749 110.3582,-40.31146 112.3372,-49.56117 1.3265,-9.91614 7.2707,-72.03288 -72.0329,-85.91455 a 46.051884,46.051884 0 0 0 -8.5829,-1.31936 70.914754,70.914754 0 0 0 -2.767,-14.05723 80.173975,80.173975 0 0 1 43.9701,-13.14069 c 31.0547,0 77.3175,33.70046 85.2478,85.90745 5.2916,-19.82589 -13.2078,-108.37207 -83.9284,-108.37207 -29.8021,0 -42.5529,16.70482 -47.8844,28.60745 a 56.316516,56.316516 0 0 0 -44.8659,-32.47119 c -37.6656,-6.61099 -111.6775,19.15912 -165.2039,41.63082 -32.3811,-29.0756 -55.5124,-66.08866 -48.2418,-108.37916 8.5972,-49.55408 49.5612,-64.09542 78.6368,-58.81089 28.4159,4.63196 52.8667,19.16621 46.9225,50.88763 -5.2917,32.37401 -37.6728,35.01983 -45.596,33.70047 -7.9304,-1.32646 -9.9165,-20.48557 -18.5066,-30.40171 -9.2497,-9.24262 -31.7143,0 -20.4784,14.54135 11.8884,15.20103 21.1452,24.45075 36.9988,25.77011 15.8607,0.66677 50.2209,-6.6039 56.1722,-41.62373 5.9442,-34.36723 -23.7911,-58.1583 -53.5264,-63.44284 -29.0756,-5.29163 -79.3035,15.86071 -87.8935,66.74834 -5.9443,34.36057 9.2568,77.9771 43.6169,115.64274 -16.5204,7.26358 -30.4017,13.2078 -38.985,17.83975 -4.6319,1.97904 -9.2568,3.96518 -14.5413,6.61064 -79.9633,-42.2905 -144.0658,-74.01901 -179.0927,-79.96288 -40.3115,-7.27067 -96.4765,2.63837 -105.0666,52.20699 -7.2711,40.31089 23.7909,64.76178 60.7897,76.65731 z m 504.2231,-49.56117 a 34.922503,34.922503 0 0 1 8.5829,0.65968 c 54.8599,9.90273 68.7274,48.90149 65.4219,68.0677 -3.2984,19.82588 -38.3253,54.84571 -103.0875,43.61695 -50.8805,-9.25717 -96.4765,-28.42302 -161.2387,-62.11639 q 21.8015,-9.92699 43.6169,-17.85394 a 257.65745,257.65745 0 0 0 56.8248,16.52749 c 51.5473,9.24262 85.9145,-26.43688 89.22,-43.61696 -2e-4,-1.97897 0.6597,-3.30556 0.6597,-5.28453 z m -126.8786,25.11042 c 45.596,-15.86071 88.5462,-26.43688 120.2676,-25.7772 a 4.912777,4.912777 0 0 1 -0.6668,3.3055 c -2.6387,16.52039 -30.3879,44.27663 -78.6297,35.6866 a 203.07575,203.07575 0 0 1 -40.9714,-13.21504 z m 77.9771,-85.90745 c 27.7562,4.62486 38.3182,25.77011 41.6237,43.61695 -46.9153,-3.96517 -103.7472,9.90231 -151.9819,27.09657 a 306.84566,306.84566 0 0 1 -36.3534,-23.13848 c 60.797,-27.75653 119.615,-52.86674 146.7112,-47.5749 z m -160.5862,54.18603 a 237.69523,237.69523 0 0 0 32.3811,23.13139 c -15.201,5.94422 -29.7352,11.89553 -41.6308,17.83975 -8.59,-3.95808 -17.1871,-9.24972 -26.4298,-13.87458 l -11.2358,-5.95131 c 15.1938,-7.26379 31.0546,-13.87486 46.9151,-21.14525 z m -61.4567,27.75625 q 7.9375,3.96922 15.8678,7.93035 c 7.2636,3.95808 14.5343,7.92326 22.4576,11.89553 a 49.304607,49.304607 0 0 1 -7.9233,4.62486 c -54.186,28.40883 -139.4338,78.63678 -190.3285,69.38706 -50.8806,-8.59003 -71.3661,-39.65177 -68.0606,-59.47731 0.6667,-1.32645 0.6667,-2.64581 1.3264,-3.95808 a 154.96574,154.96574 0 0 0 18.4995,3.95808 c 45.603,7.93745 107.0527,7.27068 192.9601,-28.40883 4.6249,-1.98663 9.9163,-3.9656 15.2008,-5.95195 z M 1312.899,665.41326 c 3.2984,-18.50653 30.395,-55.5054 96.4766,-43.61696 52.2069,9.25681 114.3233,46.26277 167.1971,76.66483 -44.2837,18.49943 -115.6498,42.2905 -198.2589,31.055 4.6249,-12.55521 12.5552,-22.4717 20.4856,-23.13138 11.9026,-1.32646 31.0546,-2.64582 29.0827,-17.18007 -2.6458,-14.54135 -26.4373,-6.611 -34.3673,-0.65969 -3.9651,3.30508 -15.8607,13.20781 -23.1243,40.31146 l -6.6109,-1.32645 c -44.9364,-7.26394 -54.1862,-42.95054 -50.8807,-62.11696 z" class="cls-1"/>
  <path style="fill:#132651;stroke-width:7.09334087" inkscape:connector-curvature="0" id="body9" d="m 2344.2565,662.77077 c -53.5334,-22.4717 -127.5311,-48.24181 -165.2039,-41.63791 -25.4947,4.55932 -38.754,18.20613 -45.188,33.1691 -5.0892,-11.93497 -17.5965,-29.30202 -47.5592,-29.30202 -71.3732,0 -89.2129,88.54617 -83.2616,108.37206 7.2636,-52.20699 53.5192,-85.90745 84.581,-85.90745 a 77.761246,77.761246 0 0 1 43.8865,13.40783 71.152239,71.152239 0 0 0 -2.6864,13.78662 45.699274,45.699274 0 0 0 -8.59,1.32645 c -79.2965,13.88167 -73.3523,75.99841 -72.0258,85.91455 1.9861,9.24972 21.1452,66.08866 112.3372,49.5616 66.7413,-11.23585 124.2473,-38.9921 173.1343,-64.10962 11.2429,4.63195 22.4717,9.91649 33.7075,15.21522 88.5533,40.96404 159.2668,56.82475 197.5921,50.21376 38.3254,-6.6039 74.6716,-35.01983 68.0674,-72.02578 37.0059,-11.90263 68.0606,-36.35338 60.797,-76.66483 -8.5971,-49.56118 -64.7622,-59.47057 -105.0737,-52.1999 -35.0269,5.93713 -99.1294,37.66564 -179.0855,79.95614 -5.2917,-2.64582 -9.9236,-4.62486 -14.5414,-6.61099 -8.59,-4.62486 -22.4646,-10.57618 -38.9917,-17.83976 34.3672,-37.65854 49.5611,-81.27514 43.6095,-115.64273 -8.583,-50.88763 -58.8109,-72.03288 -87.8865,-66.74125 -29.7353,5.27745 -59.4706,29.07561 -53.5264,63.43575 5.9513,35.01982 40.3115,42.2905 56.1722,41.63082 15.8607,-1.31936 25.1104,-10.57617 37.006,-25.77011 11.2358,-14.54135 -11.2359,-23.79106 -20.4856,-14.54135 -8.59,9.91614 -10.5691,29.07561 -18.5065,30.39497 -7.9233,1.32645 -40.3115,-1.31936 -45.5889,-33.69337 -5.9513,-31.72142 18.4994,-46.26277 46.9153,-50.88763 29.0756,-5.29163 70.0468,9.25681 78.6368,58.81089 7.2634,42.29021 -15.8605,79.30334 -48.2417,108.37894 z m -166.5232,-32.3811 c 27.0894,-5.28454 85.9074,19.82589 146.7044,47.57504 a 305.91451,305.91451 0 0 1 -36.3462,23.14557 c -48.2419,-17.19426 -105.0737,-31.06883 -151.9891,-27.10366 3.2984,-17.84684 13.8744,-38.99223 41.6308,-43.61695 z m 77.9771,85.91455 a 202.52304,202.52304 0 0 1 -40.9783,13.2078 c -48.2347,8.59713 -75.9909,-19.15912 -78.6297,-35.67951 a 4.9644165,4.9644165 0 0 1 -0.6596,-3.30549 c 31.7071,-0.65961 74.6642,9.91677 120.2673,25.7772 z m -97.803,87.22681 c -64.7622,11.23585 -99.7895,-23.79107 -103.0946,-43.60986 -3.2984,-19.16621 10.5761,-58.1654 65.4218,-68.07479 a 34.961588,34.961588 0 0 1 8.5901,-0.65968 c 0,1.98613 0.6667,3.31259 0.6667,5.29163 3.3055,17.18007 37.6586,52.85958 89.213,43.61695 a 257.65745,257.65745 0 0 0 56.8247,-16.52748 q 21.8121,7.92674 43.617,17.85394 c -64.7625,33.69351 -110.3583,52.85248 -161.2387,62.10929 z m 433.5095,-181.73139 c 66.0745,-11.89554 93.171,25.11042 96.4765,43.61695 3.3055,19.16621 -5.9516,54.8528 -50.8805,62.11639 l -6.611,1.31936 c -7.2707,-27.09621 -19.1591,-37.00596 -23.1314,-40.31146 -7.9303,-5.95131 -31.7143,-13.88167 -34.3672,0.65968 -1.972,14.53426 17.1871,15.86071 29.0827,17.18717 7.9303,0.65968 15.8607,10.57617 20.4855,23.12429 -82.609,11.24294 -153.9751,-12.54812 -198.2517,-31.05465 52.8663,-30.40206 114.9902,-67.40788 167.1971,-76.65773 z m -191.655,90.5394 c 5.2987,1.9794 10.5833,3.96518 15.2081,5.94422 85.9075,35.6795 147.3642,36.34628 192.9673,28.40883 a 154.11922,154.11922 0 0 0 18.4994,-3.95809 c 0.6597,1.31227 0.6597,2.63873 1.3194,3.95809 3.3055,19.82589 -17.1801,50.88763 -68.0606,59.48476 -50.8876,9.24262 -136.1354,-40.97823 -190.3218,-69.38706 a 49.119045,49.119045 0 0 1 -7.9304,-4.63196 c 7.9304,-3.96517 15.194,-7.93035 22.4647,-11.88844 q 7.9379,-3.96844 15.8536,-7.93049 z m -14.5342,-6.61064 -11.2288,5.94422 c -9.2497,4.63195 -17.8468,9.91649 -26.4369,13.87457 -11.8955,-5.93712 -26.4298,-11.88843 -41.6237,-17.83975 a 237.41355,237.41355 0 0 0 32.374,-23.12429 c 15.8535,7.26323 31.7213,13.87429 46.9154,21.14511 z" class="cls-1"/>
  <path style="fill:#132651;stroke-width:7.09334087" inkscape:connector-curvature="0" id="body10" d="m 1119.2634,814.45243 c 40.5029,0 71.1533,-16.78284 89.7591,-26.6284 18.2512,-10.2215 59.8536,-37.96356 86.8509,-37.96356 35.034,0 47.0714,17.52055 47.0714,26.64259 a 15.306862,15.306862 0 0 1 -13.4986,15.69756 12.651186,12.651186 0 0 1 -6.2067,-0.7377 9.1069985,9.1069985 0 0 0 6.2067,-8.75319 9.3588831,9.3588831 0 0 0 -9.1292,-9.49089 9.662549,9.662549 0 0 0 -9.4838,9.49089 c 0,16.41399 13.5057,17.87522 20.0742,17.87522 a 25.003175,25.003175 0 0 0 21.1594,-23.71304 c 0,-14.60519 -21.5283,-45.61727 -58.747,-45.61727 -36.857,0 -69.3303,20.43591 -106.918,39.77945 -37.9493,19.33645 -44.8795,27.36611 -76.9982,27.36611 -31.7427,0 -38.3111,-21.52829 -38.3111,-30.65742 a 15.340272,15.340272 0 0 1 16.4206,-15.69047 28.282427,28.282427 0 0 1 5.1073,0.73771 9.2213432,9.2213432 0 0 0 -5.4761,8.39142 9.6682236,9.6682236 0 0 0 9.4909,9.49089 9.3478174,9.3478174 0 0 0 9.122,-9.49089 c 2.9225,-12.04449 -13.8675,-19.7053 -22.9824,-19.7053 -9.1291,0 -19.3435,12.40626 -19.3435,26.26664 5e-4,18.60598 14.9605,46.70965 55.8321,46.70965 z m 76.6293,-39.77945 c 85.3826,-44.87248 104.3573,-37.21167 130.2692,-27.72787 -36.857,-10.21441 -60.9459,-1.83008 -126.985,33.20393 -66.0531,35.40286 -89.7728,31.02627 -102.5413,23.35163 5.8378,1.46123 22.6278,11.32062 99.2574,-28.82748 z" class="cls-1"/>
  <path style="fill:#132651;stroke-width:7.09334087" inkscape:connector-curvature="0" id="body11" d="m 2648.7169,776.87035 a 25.016937,25.016937 0 0 0 21.1662,23.72014 c 6.5755,0 20.067,-1.46159 20.067,-17.88232 a 9.6611303,9.6611303 0 0 0 -9.4767,-9.49089 9.3598761,9.3598761 0 0 0 -9.1362,9.49089 9.1162199,9.1162199 0 0 0 6.2067,8.76028 12.63324,12.63324 0 0 1 -6.2067,0.73061 15.3014,15.3014 0 0 1 -13.4844,-15.69756 c 0,-9.11494 12.0303,-26.6355 47.0643,-26.6355 26.9972,0 68.5997,27.73497 86.8509,37.95647 18.6058,9.84556 49.2561,26.6284 89.7591,26.6284 40.8718,0 55.8317,-28.09672 55.8317,-46.70965 0,-13.86038 -10.2144,-26.26664 -19.3436,-26.26664 -9.1149,0 -25.8977,7.66081 -22.9824,19.7053 a 9.3524281,9.3524281 0 0 0 9.1221,9.49089 9.6636839,9.6636839 0 0 0 9.4908,-9.49089 9.2116253,9.2116253 0 0 0 -5.4831,-8.39142 28.442027,28.442027 0 0 1 5.1143,-0.73771 15.334455,15.334455 0 0 1 16.414,15.69047 c 0,9.12913 -6.5614,30.65742 -38.3041,30.65742 -32.1186,0 -39.0488,-8.02966 -76.9982,-27.36611 -37.5805,-19.33644 -70.0609,-39.77945 -106.9179,-39.77945 -37.2188,-2.1e-4 -58.7538,31.01889 -58.7538,45.61727 z m 156.1808,-2.19936 c 76.6293,40.14831 93.4193,30.28857 99.2571,28.83443 -12.768,7.66826 -36.4882,12.0445 -102.5414,-23.35128 -66.039,-35.03401 -90.1279,-43.42543 -126.9849,-33.20392 25.9121,-9.49068 44.8798,-17.15163 130.2692,27.72077 z" class="cls-1"/>
  <path style="fill:#132651;stroke-width:7.09334087" inkscape:connector-curvature="0" id="body12" d="m 1984.5559,425.58506 a 12.986418,12.986418 0 0 0 -16.8183,0.57456 22.22748,22.22748 0 0 0 -4.2773,15.39255 22.024823,22.024823 0 0 0 -12.2644,-1.99323 21.240158,21.240158 0 0 0 -20.8189,22.80509 36.227891,36.227891 0 0 0 14.2572,25.09624 31.767598,31.767598 0 0 1 -3.419,-18.24407 10.102762,10.102762 0 0 1 10.2641,-10.83863 14.562629,14.562629 0 0 1 13.6902,11.41319 c 0.5674,6.83798 -7.9871,21.37933 -7.1289,29.9339 0.8512,8.55457 5.4194,22.52845 13.3994,21.67015 7.98,-0.57456 13.6901,-10.26406 13.6901,-10.26406 10.8315,8.27084 12.2573,39.63759 12.2573,50.75285 a 146.88557,146.88557 0 0 0 -33.0762,-34.50201 114.55419,114.55419 0 0 0 -64.443,-22.52845 c -15.6834,0 -36.779,14.83218 -35.3533,33.65081 a 32.135246,32.135246 0 0 0 33.0763,29.94099 c -4.2844,-1.70949 -18.542,-11.12235 -19.6769,-23.66338 a 15.206633,15.206633 0 0 1 13.3993,-15.9742 c 11.1223,0 23.3867,29.94099 48.1851,29.94099 15.9742,0 17.9745,-10.26407 17.6837,-13.11559 a 31.218148,31.218148 0 0 0 -7.9801,-19.10946 c 16.8184,7.1359 35.3533,25.09624 48.1851,43.06367 v 10.55489 a 29.036946,29.036946 0 0 0 -13.3993,-4.56811 c -5.4193,0.28374 -10.2641,4.84475 -13.6902,15.11591 -3.426,10.54071 -5.4193,15.39964 -7.98,15.67628 -2.5678,0.29083 -12.8318,-17.10913 -12.8318,-17.10913 0,0 0.8512,31.08302 15.6834,29.94099 14.825,-1.42576 16.8183,-23.66381 20.8118,-23.95421 a 17.278811,17.278811 0 0 1 8.5546,2.56779 c 0,0 -7.7034,2.28405 -7.7034,14.83217 0,12.25729 13.1227,24.23085 13.1227,24.23085 0,0 14.2505,-11.97356 14.2505,-24.23085 0,-12.54812 -7.6963,-14.83217 -7.6963,-14.83217 a 17.278811,17.278811 0 0 1 8.5546,-2.56779 c 4.0007,0.29082 5.9868,22.52845 20.8119,23.95421 14.5484,1.14167 15.6904,-29.94099 15.6904,-29.94099 0,0 -10.2711,17.39996 -12.8318,17.10913 -2.5749,-0.27664 -4.5681,-5.13557 -7.98,-15.67628 -3.4261,-10.27116 -8.2709,-14.83217 -13.6973,-15.11591 a 29.197397,29.197397 0 0 0 -13.6759,4.56811 v -10.55489 c 13.1156,-17.96743 31.3667,-35.92777 48.4617,-43.06367 a 33.264931,33.264931 0 0 0 -8.2567,19.10946 c 0,2.85152 1.9933,13.11559 17.6695,13.11559 25.0963,0 37.3607,-29.94099 48.483,-29.94099 a 15.408652,15.408652 0 0 1 13.3923,15.9742 c -1.1417,12.54103 -15.3855,21.95389 -19.9607,23.66338 a 31.978696,31.978696 0 0 0 33.0762,-29.94099 c 1.7095,-18.81863 -19.3931,-33.65081 -35.0694,-33.65081 a 113.9492,113.9492 0 0 0 -64.7197,22.52845 154.13312,154.13312 0 0 0 -33.0762,34.50201 c 0,-18.24407 0.8512,-37.92809 12.541,-50.75285 0,0 5.7101,9.6895 13.6902,10.26406 7.6962,0.8583 12.541,-13.11558 13.3922,-21.67015 0.8512,-8.55457 -7.6963,-23.09592 -7.1288,-29.9339 a 14.581923,14.581923 0 0 1 13.6972,-11.41319 10.101556,10.101556 0 0 1 10.257,10.83863 31.770648,31.770648 0 0 1 -3.4119,18.24407 36.229593,36.229593 0 0 0 14.2576,-25.09624 21.64689,21.64689 0 0 0 -21.1027,-22.80509 21.026932,21.026932 0 0 0 -11.9806,1.99323 21.458278,21.458278 0 0 0 -4.5611,-15.39255 12.607066,12.607066 0 0 0 -16.5345,-0.57456 c -1.7095,-5.13558 -4.5681,-17.10914 -15.9671,-17.10914 -11.9803,7e-5 -14.2644,11.97356 -15.9739,17.10914 z m 35.9274,30.79928 c 0,24.80506 -17.9604,50.75286 -19.6628,78.70062 -1.1491,-27.3732 -20.2515,-55.03014 -20.2515,-78.70062 0,-14.25761 5.4122,-30.51555 19.1024,-30.51555 16.8258,2.9e-4 20.8123,16.25815 20.8123,30.51584 z" class="cls-1"/>
  <path style="fill:#132651;stroke-width:7.09334087" inkscape:connector-curvature="0" id="body13" d="M 3088.22,2462.1519 H 912.57193 a 8.0971196,8.0971196 0 1 0 0,16.1941 H 3088.2202 a 8.0971196,8.0971196 0 0 0 0,-16.1941 z" class="cls-1"/>
  <path style="fill:#132651;stroke-width:7.09334087" inkscape:connector-curvature="0" id="body14" d="M 2982.8551,2487.3419 H 1017.936 a 5.39805,5.39805 0 1 0 0,10.7961 h 1964.9193 a 5.39805,5.39805 0 0 0 0,-10.7961 z" class="cls-1"/>
  <path style="fill:#132651;stroke-width:7.09334087" inkscape:connector-curvature="0" id="body15" d="m 2070.4399,2836.6369 a 66.814448,66.814448 0 0 1 23.1314,52.207 c 0,35.0269 -33.7005,53.5263 -48.9015,69.387 -15.2011,15.8607 -44.9363,33.7076 -43.617,89.8727 9.2568,-70.7065 122.2538,-88.5462 122.2538,-148.031 0,-31.7071 -22.4645,-52.8524 -52.8667,-63.4357 z" class="cls-1"/>
  <path style="fill:#132651;stroke-width:7.09334087" inkscape:connector-curvature="0" id="body16" d="m 1956.1165,2958.2311 c -15.1939,-15.8607 -48.9086,-34.3601 -48.9086,-69.387 a 67.447741,67.447741 0 0 1 22.4717,-52.207 c -29.7282,10.5833 -52.8596,31.7285 -52.8596,63.4357 0,59.4848 112.997,77.3246 122.2538,148.031 1.9792,-56.165 -28.416,-74.0122 -42.9573,-89.8727 z" class="cls-1"/>
  <path style="fill:#132651;stroke-width:7.09334087" inkscape:connector-curvature="0" id="body17" d="m 2135.2022,2722.3208 c -25.7702,-9.2568 -37.006,-8.5971 -55.5054,-19.8259 5.2845,7.9304 15.1939,16.5204 42.2905,32.3807 a 62.969006,62.969006 0 0 1 31.7214,52.8667 c 0,55.5054 -42.9573,55.5054 -81.2826,42.9505 46.2628,33.0408 112.9969,23.1314 112.9969,-38.985 a 73.874024,73.874024 0 0 0 -50.2208,-69.387 z" class="cls-1"/>
  <path style="fill:#132651;stroke-width:7.09334087" inkscape:connector-curvature="0" id="body18" d="m 1969.991,2576.9286 a 16.67765,16.67765 0 0 0 17.1943,17.1872 16.112666,16.112666 0 0 0 15.1939,-9.2568 16.107417,16.107417 0 0 0 15.2006,9.2568 16.86988,16.86988 0 0 0 1.3123,-33.7076 14.391325,14.391325 0 0 0 0.6675,-5.2774 17.070125,17.070125 0 0 0 -17.1801,-17.1943 17.504095,17.504095 0 0 0 -17.1872,17.1943 c 0,1.9719 0.6668,3.2984 0.6668,4.6177 a 17.791943,17.791943 0 0 0 -15.8678,17.1801 z" class="cls-1"/>
  <path style="fill:#132651;stroke-width:7.09334087" inkscape:connector-curvature="0" id="body19" d="m 1847.0776,2787.7425 a 61.4206,61.4206 0 0 1 31.7285,-52.8667 c 27.0895,-15.8607 37.006,-24.4507 41.6237,-32.3807 -18.4994,11.2284 -29.0756,10.5691 -54.8457,19.8259 a 73.033038,73.033038 0 0 0 -50.2208,69.3871 c 0,62.1164 66.7483,72.0258 112.9969,38.985 -38.9918,12.5548 -81.2826,12.5548 -81.2826,-42.9506 z" class="cls-1"/>
  <path style="fill:#132651;stroke-width:7.09334087" inkscape:connector-curvature="0" id="body20" d="m 2633.0535,2584.7575 c 6.6039,-37.006 -29.7428,-65.4219 -68.0748,-72.0329 -38.3253,-6.611 -109.0318,9.2497 -197.585,50.2208 -11.2359,5.2917 -22.4717,10.5833 -33.7076,15.2082 -48.8944,-25.1176 -106.3859,-52.8738 -173.1343,-64.1026 -91.192,-16.5275 -110.3582,40.3115 -112.3372,49.5612 -1.3265,9.9165 -7.2707,72.0329 72.0329,85.9146 a 46.019681,46.019681 0 0 0 8.5829,1.3193 70.947596,70.947596 0 0 0 2.767,14.0568 80.17355,80.17355 0 0 1 -43.9701,13.1411 c -31.0547,0 -77.3175,-33.7004 -85.2474,-85.9074 -5.2916,19.8259 13.2078,108.372 83.9284,108.372 29.8012,0 42.5523,-16.7038 47.884,-28.6067 a 56.301407,56.301407 0 0 0 44.8663,32.4703 c 37.6656,6.611 111.6775,-19.1591 165.2039,-41.6308 32.3811,29.0756 55.5125,66.0816 48.2418,108.3792 -8.5971,49.5541 -49.5612,64.0954 -78.6368,58.8109 -28.4159,-4.632 -52.8666,-19.1662 -46.9224,-50.8877 5.2916,-32.374 37.6727,-35.0198 45.596,-33.7004 7.9303,1.3264 9.9165,20.4856 18.5065,30.402 9.2497,9.2427 31.7143,0 20.4785,-14.5413 -11.8885,-15.201 -21.1453,-24.4507 -36.9989,-25.7701 -15.8607,-0.6668 -50.2209,6.6039 -56.1722,41.6237 -5.9442,34.3673 23.7911,58.1583 53.5264,63.4429 29.0756,5.2916 79.3035,-15.8608 87.8936,-66.7484 5.9442,-34.3601 -9.2568,-77.9771 -43.617,-115.6427 16.5204,-7.2636 30.4021,-13.2078 38.985,-17.8398 4.632,-1.979 9.2568,-3.9651 14.5414,-6.611 79.9632,42.2905 144.0657,74.019 179.0926,79.9633 40.3115,7.2706 96.4766,-2.6388 105.0666,-52.207 7.2703,-40.3111 -23.7913,-64.7619 -60.7901,-76.6575 z m -504.2231,49.5611 a 34.900159,34.900159 0 0 1 -8.5829,-0.6597 c -54.8599,-9.9023 -68.7274,-48.9014 -65.4219,-68.0673 3.2984,-19.8259 38.3253,-54.8461 103.0875,-43.617 50.8806,9.2569 96.4765,28.4231 161.2387,62.1164 q -21.8008,9.927 -43.6169,17.854 a 257.67348,257.67348 0 0 0 -56.8248,-16.5275 c -51.5473,-9.2426 -85.9145,26.4369 -89.22,43.6169 -2e-4,1.9787 -0.6604,3.3053 -0.6604,5.2842 z m 126.8786,-25.1104 c -45.596,15.8607 -88.5462,26.4369 -120.2676,25.7772 a 4.9122095,4.9122095 0 0 1 0.6668,-3.3055 c 2.6387,-16.5204 30.3879,-44.2766 78.6297,-35.6866 a 203.03922,203.03922 0 0 1 40.971,13.2151 z m -77.9771,85.9075 c -27.7562,-4.6249 -38.3182,-25.7702 -41.6237,-43.617 46.9153,3.9652 103.7472,-9.9023 151.9819,-27.0966 a 306.8104,306.8104 0 0 1 36.3534,23.1385 c -60.797,27.7561 -119.6155,52.8668 -146.7116,47.575 z m 160.5862,-54.1861 a 237.69523,237.69523 0 0 0 -32.3811,-23.1314 c 15.201,-5.9442 29.7352,-11.8955 41.6308,-17.8397 8.59,3.9581 17.1871,9.2497 26.4298,13.8746 l 11.2358,5.9513 c -15.1942,7.2634 -31.0546,13.8745 -46.9156,21.1453 z m 61.4567,-27.7562 q -7.9375,-3.9686 -15.8678,-7.9304 c -7.2636,-3.9581 -14.5343,-7.9232 -22.4576,-11.8955 a 49.304607,49.304607 0 0 1 7.9233,-4.6249 c 54.186,-28.4088 139.4338,-78.6367 190.3285,-69.387 50.8806,8.59 71.3661,39.6517 68.0606,59.4776 -0.6667,1.3265 -0.6667,2.6459 -1.3264,3.9581 a 154.8443,154.8443 0 0 0 -18.4995,-3.9581 c -45.603,-7.9374 -107.0527,-7.2706 -192.9601,28.4089 -4.6253,1.9863 -9.9167,3.9653 -15.2012,5.9512 z m 288.1173,46.9224 c -3.2984,18.5066 -30.395,55.5054 -96.4765,43.617 -52.207,-9.2568 -114.323,-46.2628 -167.1972,-76.6648 44.2837,-18.4995 115.6498,-42.2905 198.2589,-31.0547 -4.6249,12.5552 -12.5552,22.4717 -20.4856,23.1314 -11.9026,1.3264 -31.0546,2.6458 -29.0827,17.1805 2.6458,14.5413 26.4369,6.6106 34.3673,0.6597 3.9651,-3.3055 15.8607,-13.2078 23.1243,-40.3115 l 6.6109,1.3265 c 44.9359,7.2631 54.1858,42.9498 50.8803,62.1158 z" class="cls-1"/>
  <path style="fill:#132651;stroke-width:7.09334087" inkscape:connector-curvature="0" id="body21" d="m 1656.5346,2662.7379 c 53.5334,22.4717 127.5307,48.2418 165.2039,41.6383 25.4947,-4.5597 38.754,-18.207 45.1884,-33.1695 5.0893,11.935 17.5965,29.302 47.5588,29.302 71.3732,0 89.2129,-88.5462 83.2616,-108.372 -7.2636,52.2069 -53.5192,85.9074 -84.581,85.9074 a 77.762523,77.762523 0 0 1 -43.8865,-13.4078 71.158552,71.158552 0 0 0 2.6864,-13.7866 45.667638,45.667638 0 0 0 8.5901,-1.3265 c 79.2964,-13.8817 73.3522,-75.9981 72.0257,-85.9145 -1.9861,-9.2498 -21.1452,-66.0887 -112.3372,-49.5612 -66.7412,11.2358 -124.247,38.9921 -173.1343,64.1096 -11.2429,-4.632 -22.4717,-9.9165 -33.7075,-15.2152 -88.5533,-40.9641 -159.2668,-56.8248 -197.5921,-50.2138 -38.3253,6.6039 -74.6716,35.0198 -68.0677,72.0258 -37.006,11.9026 -68.0606,36.3534 -60.7971,76.6648 8.5972,49.5612 64.7618,59.4706 105.0737,52.1999 35.0269,-5.9371 99.1294,-37.6656 179.0856,-79.9561 5.2916,2.6458 9.9236,4.6249 14.5413,6.611 8.5901,4.6248 22.4646,10.5762 38.9921,17.8397 -34.3672,37.6586 -49.5611,81.2755 -43.6098,115.6428 8.5829,50.8876 58.8109,72.0329 87.8865,66.7412 29.7352,-5.2774 59.4705,-29.0756 53.5263,-63.4357 -5.9513,-35.0199 -40.3114,-42.2905 -56.1722,-41.6308 -15.8607,1.3193 -25.1104,10.5761 -37.0059,25.7701 -11.2359,14.5413 11.2358,23.791 20.4856,14.5413 8.59,-9.9165 10.569,-29.0756 18.5065,-30.395 7.9232,-1.3264 40.3114,1.3194 45.5889,33.6934 5.9513,31.7214 -18.4995,46.2628 -46.9154,50.8876 -29.0756,5.2917 -70.0467,-9.2568 -78.6368,-58.8108 -7.2634,-42.2906 15.861,-79.3038 48.2421,-108.3794 z m 166.5232,32.3811 c -27.0894,5.2845 -85.9074,-19.8259 -146.7044,-47.5751 a 305.91451,305.91451 0 0 1 36.3462,-23.1455 c 48.2419,17.1942 105.0737,31.0688 151.9891,27.1036 -3.2989,17.8469 -13.8748,38.9923 -41.6312,43.6171 z m -77.9771,-85.9146 a 202.55936,202.55936 0 0 1 40.9783,-13.2078 c 48.2347,-8.5971 75.9909,19.1592 78.6297,35.6795 a 4.963849,4.963849 0 0 1 0.6596,3.3055 c -31.7075,0.6604 -74.6646,-9.9162 -120.2678,-25.7771 z m 97.803,-87.2268 c 64.7622,-11.2358 99.7895,23.7911 103.0946,43.6099 3.2985,19.1662 -10.5761,58.1654 -65.4218,68.0748 a 34.961588,34.961588 0 0 1 -8.5901,0.6597 c 0,-1.9862 -0.6667,-3.3126 -0.6667,-5.2917 -3.3055,-17.18 -37.6586,-52.8595 -89.213,-43.6169 a 257.65703,257.65703 0 0 0 -56.8247,16.5275 q -21.8121,-7.9268 -43.617,-17.854 c 64.7621,-33.693 110.3579,-52.852 161.2382,-62.1092 z m -433.5095,181.7314 c -66.074,11.8956 -93.1707,-25.1104 -96.4765,-43.6169 -3.3055,-19.1662 5.9513,-54.8528 50.8805,-62.1164 l 6.611,-1.3194 c 7.2707,27.0966 19.1591,37.006 23.1314,40.3115 7.9303,5.9516 31.7143,13.8816 34.3672,-0.6597 1.972,-14.5343 -17.1871,-15.8607 -29.0827,-17.1872 -7.9303,-0.6526 -15.8607,-10.5761 -20.4855,-23.1243 82.609,-11.2429 153.9751,12.5482 198.2517,31.055 -52.8668,30.4018 -114.9902,67.4081 -167.1975,76.6574 z m 191.655,-90.5394 c -5.2987,-1.979 -10.5833,-3.9652 -15.2081,-5.9442 -85.9075,-35.6795 -147.3642,-36.3463 -192.9673,-28.4088 a 154.11092,154.11092 0 0 0 -18.4994,3.9581 c -0.6597,-1.3123 -0.6597,-2.6388 -1.3194,-3.9581 -3.3055,-19.8259 17.1801,-50.8877 68.0606,-59.4848 50.8877,-9.2426 136.1354,40.9782 190.3215,69.3871 a 49.150965,49.150965 0 0 1 7.9303,4.6319 c -7.9303,3.9652 -15.1939,7.9304 -22.4646,11.8885 q -7.9374,3.9689 -15.8537,7.9305 z m 14.5342,6.611 11.2284,-5.9442 c 9.2498,-4.632 17.8472,-9.9165 26.4373,-13.8746 11.8955,5.9371 26.4298,11.8885 41.6237,17.8398 a 237.41355,237.41355 0 0 0 -32.374,23.1243 c -15.8539,-7.2636 -31.7217,-13.8742 -46.9154,-21.1451 z" class="cls-1"/>
  <path style="fill:#132651;stroke-width:7.09334087" inkscape:connector-curvature="0" id="body22" d="m 2881.5273,2511.0563 c -40.503,0 -71.1533,16.7828 -89.7591,26.6284 -18.2512,10.2215 -59.8536,37.9639 -86.8509,37.9639 -35.034,0 -47.0714,-17.5205 -47.0714,-26.6426 a 15.30672,15.30672 0 0 1 13.4986,-15.6975 12.651683,12.651683 0 0 1 6.2067,0.7372 9.1068566,9.1068566 0 0 0 -6.2067,8.7532 9.3582446,9.3582446 0 0 0 9.1292,9.4909 9.6621943,9.6621943 0 0 0 9.4838,-9.4909 c 0,-16.414 -13.5058,-17.8752 -20.0742,-17.8752 a 25.002608,25.002608 0 0 0 -21.1594,23.713 c 0,14.6052 21.5282,45.6173 58.747,45.6173 36.857,0 69.3303,-20.4359 106.9179,-39.7794 37.9494,-19.3365 44.8796,-27.3661 76.9983,-27.3661 31.7427,0 38.3111,21.5282 38.3111,30.6574 a 15.340556,15.340556 0 0 1 -16.4211,15.6904 28.287818,28.287818 0 0 1 -5.1072,-0.7377 9.220492,9.220492 0 0 0 5.4761,-8.3914 9.6686492,9.6686492 0 0 0 -9.4909,-9.4909 9.3478884,9.3478884 0 0 0 -9.1221,9.4909 c -2.9224,12.0445 13.8675,19.7053 22.9825,19.7053 9.1291,0 19.3435,-12.4062 19.3435,-26.2666 -10e-5,-18.606 -14.9596,-46.7096 -55.8317,-46.7096 z m -76.6294,39.7795 c -85.3825,44.8724 -104.3572,37.2116 -130.2695,27.7278 36.857,10.2144 60.946,1.8305 126.985,-33.2039 66.0532,-35.4029 89.7733,-31.0263 102.5413,-23.3513 -5.8374,-1.4611 -22.6274,-11.321 -99.2565,28.8271 z" class="cls-1"/>
  <path style="fill:#132651;stroke-width:7.09334087" inkscape:connector-curvature="0" id="body23" d="m 1352.0742,2548.6388 a 25.017291,25.017291 0 0 0 -21.1665,-23.7201 c -6.5756,0 -20.0671,1.4612 -20.0671,17.8823 a 9.6611303,9.6611303 0 0 0 9.4767,9.4909 9.3598761,9.3598761 0 0 0 9.1362,-9.4909 9.1162199,9.1162199 0 0 0 -6.2066,-8.7603 12.63324,12.63324 0 0 1 6.2066,-0.7306 15.3014,15.3014 0 0 1 13.4845,15.6976 c 0,9.1149 -12.0303,26.6354 -47.0643,26.6354 -26.9973,0 -68.5997,-27.7349 -86.8509,-37.9564 -18.6058,-9.8527 -49.2562,-26.6284 -89.7591,-26.6284 -40.8719,0 -55.8317,28.0967 -55.8317,46.7096 0,13.8604 10.2144,26.2667 19.3435,26.2667 9.115,0 25.8978,-7.6608 22.9824,-19.7053 a 9.3524281,9.3524281 0 0 0 -9.122,-9.4909 9.663542,9.663542 0 0 0 -9.4909,9.4909 9.2111997,9.2111997 0 0 0 5.4828,8.3914 28.437771,28.437771 0 0 1 -5.1139,0.7377 15.334526,15.334526 0 0 1 -16.414,-15.6905 c 0,-9.1291 6.5613,-30.6574 38.304,-30.6574 32.1187,0 39.0484,8.0297 76.9982,27.3661 37.5805,19.3365 70.061,39.7795 106.918,39.7795 37.2186,2e-4 58.7541,-31.0189 58.7541,-45.6173 z m -156.1812,2.1989 c -76.6293,-40.1483 -93.4193,-30.2885 -99.2571,-28.8344 12.768,-7.6679 36.4881,-12.0445 102.5413,23.3516 66.039,35.034 90.1284,43.4251 126.985,33.204 -25.9122,9.4907 -44.8798,17.1516 -130.2692,-27.7212 z" class="cls-1"/>
  <path style="fill:#132651;stroke-width:7.09334087" inkscape:connector-curvature="0" id="body24" d="m 2016.2348,2899.9237 a 12.985283,12.985283 0 0 0 16.8183,-0.5746 22.227267,22.227267 0 0 0 4.2773,-15.3925 22.026455,22.026455 0 0 0 12.2639,1.9932 21.240938,21.240938 0 0 0 20.8194,-22.8051 36.229451,36.229451 0 0 0 -14.2576,-25.0962 31.766889,31.766889 0 0 1 3.419,18.244 10.102478,10.102478 0 0 1 -10.2641,10.8387 14.561849,14.561849 0 0 1 -13.6901,-11.4132 c -0.5675,-6.838 7.9871,-21.3794 7.1288,-29.9339 -0.8512,-8.5546 -5.4193,-22.5285 -13.3993,-21.6702 -7.9801,0.5746 -13.6905,10.2641 -13.6905,10.2641 -10.8316,-8.2709 -12.2573,-39.6376 -12.2573,-50.7529 a 146.89451,146.89451 0 0 0 33.0762,34.502 114.5537,114.5537 0 0 0 64.443,22.5285 c 15.6834,0 36.779,-14.8322 35.3532,-33.6508 a 32.135175,32.135175 0 0 0 -33.0762,-29.9407 c 4.2844,1.7095 18.542,11.1224 19.6769,23.6634 a 15.206137,15.206137 0 0 1 -13.3993,15.9742 c -11.1224,0 -23.3868,-29.9406 -48.1851,-29.9406 -15.9742,0 -17.9745,10.2641 -17.6837,13.1156 a 31.218148,31.218148 0 0 0 7.98,19.1094 c -16.8183,-7.1359 -35.3528,-25.0962 -48.185,-43.0636 v -10.5549 a 29.040989,29.040989 0 0 0 13.3993,4.5681 c 5.4193,-0.2837 10.264,-4.8448 13.6901,-15.1159 3.4261,-10.5407 5.4193,-15.3997 7.98,-15.6763 2.5678,-0.2908 12.8319,17.1091 12.8319,17.1091 0,0 -0.8512,-31.083 -15.6834,-29.941 -14.8251,1.4258 -16.8183,23.6634 -20.8118,23.9543 a 17.278811,17.278811 0 0 1 -8.5546,-2.5678 c 0,0 7.7034,-2.2841 7.7034,-14.8322 0,-12.2573 -13.1227,-24.2309 -13.1227,-24.2309 0,0 -14.2506,11.9736 -14.2506,24.2309 0,12.5481 7.6963,14.8322 7.6963,14.8322 a 17.278811,17.278811 0 0 1 -8.5545,2.5678 c -4.0007,-0.2909 -5.9868,-22.5285 -20.8119,-23.9543 -14.5484,-1.142 -15.6905,29.941 -15.6905,29.941 0,0 10.2712,-17.3999 12.8319,-17.1091 2.5749,0.2766 4.5681,5.1356 7.98,15.6763 3.4261,10.2711 8.2708,14.8322 13.6972,15.1159 a 29.201298,29.201298 0 0 0 13.676,-4.5681 v 10.5549 c -13.1156,17.9674 -31.3668,35.9277 -48.4617,43.0636 a 33.264931,33.264931 0 0 0 8.2566,-19.1094 c 0,-2.8515 -1.9932,-13.1156 -17.6695,-13.1156 -25.0962,0 -37.3606,29.9406 -48.483,29.9406 a 15.408155,15.408155 0 0 1 -13.3922,-15.9742 c 1.1417,-12.541 15.3855,-21.9539 19.9607,-23.6634 a 31.978625,31.978625 0 0 0 -33.0763,29.9407 c -1.7095,18.8186 19.3932,33.6508 35.0695,33.6508 a 113.94871,113.94871 0 0 0 64.7196,-22.5285 154.14305,154.14305 0 0 0 33.0763,-34.502 c 0,18.2441 -0.8512,37.9281 -12.541,50.7529 0,0 -5.7102,-9.6895 -13.6902,-10.2641 -7.6963,-0.8583 -12.541,13.1156 -13.3922,21.6702 -0.8512,8.5545 7.6963,23.0959 7.1288,29.9339 a 14.581426,14.581426 0 0 1 -13.6972,11.4132 10.101343,10.101343 0 0 1 -10.257,-10.8387 31.769868,31.769868 0 0 1 3.4119,-18.244 36.229522,36.229522 0 0 0 -14.2576,25.0962 21.647032,21.647032 0 0 0 21.1027,22.8051 21.030479,21.030479 0 0 0 11.9806,-1.9932 21.457356,21.457356 0 0 0 4.561,15.3925 12.606569,12.606569 0 0 0 16.5346,0.5746 c 1.7095,5.1355 4.5681,17.1091 15.9671,17.1091 11.981,4e-4 14.2651,-11.9736 15.9746,-17.1091 z m -35.9278,-30.7922 c 0,-24.8125 17.9603,-50.7595 19.6627,-78.7074 1.1492,27.3729 20.2515,55.0302 20.2515,78.7074 0,14.2505 -5.4122,30.5084 -19.1023,30.5084 -16.8254,2e-4 -20.8119,-16.2577 -20.8119,-30.5084 z" class="cls-1"/>
  <g aria-label="КАПИТАЛ" style="font-weight:normal;font-size:632.40045166px;font-family:Marta;letter-spacing:47.43003464px;fill:#132651;stroke-width:26.35001945" id="body25">
    <path d="m 405.08614,1169.1517 v 347.8202 l 55.01884,20.2369 -4.42681,27.1932 H 287.45965 l -4.4268,-27.1932 55.01884,-20.2369 v -347.8202 l -55.01884,-21.5016 4.4268,-25.9284 h 168.21852 l 4.42681,26.5608 z m 150.5113,395.2503 4.42681,-26.5608 -128.37729,-191.6174 v -26.5608 l 147.3493,-150.5113 -55.01884,-21.5016 4.42681,-25.9284 h 139.7605 l 4.4268,25.9284 -20.23682,8.2212 q -34.78202,13.9128 -60.71044,39.8412 l -126.48009,129.0097 46.16523,20.2368 115.09689,171.3805 55.01883,21.5017 -5.0592,26.5608 z" style="font-weight:normal;font-size:632.40045166px;font-family:Marta;letter-spacing:47.43003464px;fill:#132651;stroke-width:26.35001945" id="path3892"/>
    <path d="m 949.35563,1121.7217 55.01887,-10.7508 142.2901,406.001 54.3864,20.8693 -5.0592,26.5608 h -172.0129 l -4.4268,-26.5608 54.3864,-20.8693 -35.4144,-101.8164 H 872.83518 l -36.04683,101.8164 65.13725,20.8693 -4.42681,26.5608 h -144.1873 l -4.4268,-26.5608 54.38644,-20.8693 z m 15.81001,48.6948 -82.21206,218.1782 h 146.08452 l -63.87246,-185.9258 z" style="font-weight:normal;font-size:632.40045166px;font-family:Marta;letter-spacing:47.43003464px;fill:#132651;stroke-width:26.35001945" id="path3894"/>
    <path d="m 1604.068,1516.9719 v -368.6894 h -203.0006 v 368.6894 l 53.7541,20.8693 -4.4269,26.5608 h -165.6889 l -5.0592,-26.5608 54.3865,-20.8693 v -347.8202 l -55.0189,-21.5016 4.4268,-25.9284 h 437.6211 l 5.0592,25.9284 -55.0188,21.5016 v 347.8202 l 53.754,20.8693 -4.4268,26.5608 h -165.6889 l -5.0592,-26.5608 z" style="font-weight:normal;font-size:632.40045166px;font-family:Marta;letter-spacing:47.43003464px;fill:#132651;stroke-width:26.35001945" id="path3896"/>
    <path d="m 1946.8982,1482.8223 v 34.1496 l 54.3865,20.8693 -5.0592,26.5608 h -165.6889 l -4.4268,-26.5608 53.754,-20.8693 v -347.8202 l -55.0188,-21.5016 5.0592,-25.9284 h 167.5861 l 5.0592,25.9284 -55.6513,21.5016 v 255.4898 l 225.767,-227.6642 v -27.8256 l -55.0188,-21.5016 5.0592,-25.9284 h 167.5861 l 4.4268,25.9284 -55.0189,21.5016 v 347.8202 l 54.3865,20.8693 -4.4268,26.5608 H 2123.338 l -4.4268,-26.5608 53.754,-20.8693 v -261.8137 z" style="font-weight:normal;font-size:632.40045166px;font-family:Marta;letter-spacing:47.43003464px;fill:#132651;stroke-width:26.35001945" id="path3898"/>
    <path d="m 2392.8789,1234.2889 v -112.5672 h 361.7331 v 112.5672 l -26.5608,4.4268 -34.7821,-90.4332 h -86.0064 v 368.6894 l 55.0188,20.8693 -4.4268,26.5608 h -168.2185 l -4.4268,-26.5608 55.0188,-20.8693 v -368.6894 h -86.0064 l -34.782,90.4332 z" style="font-weight:normal;font-size:632.40045166px;font-family:Marta;letter-spacing:47.43003464px;fill:#132651;stroke-width:26.35001945" id="path3900"/>
    <path d="m 3018.9849,1121.7217 55.0189,-10.7508 142.2901,406.001 54.3864,20.8693 -5.0592,26.5608 h -172.0129 l -4.4268,-26.5608 54.3864,-20.8693 -35.4144,-101.8164 h -165.6889 l -36.0468,101.8164 65.1372,20.8693 -4.4268,26.5608 h -144.1873 l -4.4268,-26.5608 54.3864,-20.8693 z m 15.81,48.6948 -82.212,218.1782 h 146.0845 l -63.8725,-185.9258 z" style="font-weight:normal;font-size:632.40045166px;font-family:Marta;letter-spacing:47.43003464px;fill:#132651;stroke-width:26.35001945" id="path3902"/>
    <path d="m 3493.4633,1269.071 q 0,77.7852 -17.0748,161.8945 -17.0748,84.1092 -48.6949,133.4365 h -93.5952 l -4.4268,-26.5608 q 130.2745,-58.1809 130.2745,-292.1691 v -76.5204 l -55.0189,-21.5016 4.4268,-25.9284 h 306.0818 l 5.0592,25.9284 -55.0188,21.5016 v 347.8202 l 53.754,20.8693 -4.4268,26.5608 h -166.3213 l -4.4268,-26.5608 54.3865,-20.8693 v -369.3218 h -104.9785 z" style="font-weight:normal;font-size:632.40045166px;font-family:Marta;letter-spacing:47.43003464px;fill:#132651;stroke-width:26.35001945" id="path3904"/>
  </g>
  <g aria-label="ФИНАНС" style="font-weight:normal;font-size:629.05145264px;font-family:Marta;letter-spacing:47.1788559px;fill:#132651;stroke-width:26.21047783" id="body26">
    <path d="m 587.07009,1749.61 h 167.32769 l 4.40336,25.7911 -54.72748,21.3878 v 28.9363 q 21.38775,-5.6614 48.43696,-5.6614 50.95317,0 88.06721,23.9039 37.74308,23.2749 54.72747,59.1309 16.98439,35.2268 16.98439,77.3733 0,66.6794 -40.25929,113.2292 -39.63024,46.5499 -119.51978,46.5499 -25.16206,0 -48.43696,-5.6615 v 18.8715 l 53.46937,20.7587 -4.40336,26.4202 H 588.32819 l -5.03241,-26.4202 54.09843,-20.7587 v -18.8715 q -23.27491,5.6615 -49.06602,5.6615 -79.26048,0 -119.51977,-46.5499 -40.2593,-46.5498 -40.2593,-113.2292 0,-65.4214 42.14645,-112.6002 42.14645,-47.8079 117.63262,-47.8079 27.04922,0 49.06602,5.6614 v -28.9363 l -54.72748,-21.3878 z m 117.00357,100.0192 v 261.0563 q 18.87154,3.1453 31.45257,3.1453 30.82352,0 53.46938,-11.3229 23.2749,-11.952 35.22688,-31.4526 12.58103,-20.1297 18.24249,-42.7755 5.66146,-23.2749 5.66146,-50.3241 0,-131.4718 -112.60021,-131.4718 -12.58103,0 -31.45257,3.1453 z m -66.67945,261.0563 v -261.0563 q -18.87155,-3.1453 -32.08163,-3.1453 -111.97116,0 -111.97116,131.4718 0,57.8727 26.42016,96.8739 26.42017,39.0012 86.18005,39.0012 12.58103,0 31.45258,-3.1453 z" style="font-weight:normal;font-size:629.05145264px;font-family:Marta;letter-spacing:47.1788559px;fill:#132651;stroke-width:26.21047783" id="path3907"/>
    <path d="m 1141.2054,2119.4923 v 33.9687 l 54.0985,20.7587 -5.0325,26.4202 H 1025.46 l -4.4034,-26.4202 53.4694,-20.7587 v -345.9783 l -54.7275,-21.3877 5.0324,-25.7911 h 166.6986 l 5.0325,25.7911 -55.3566,21.3877 v 254.1368 l 224.5714,-226.4585 v -27.6783 l -54.7275,-21.3877 5.0324,-25.7911 h 166.6987 l 4.4033,25.7911 -54.7275,21.3877 v 345.9783 l 54.0985,20.7587 -4.4034,26.4202 h -165.4405 l -4.4034,-26.4202 53.4694,-20.7587 v -260.4273 z" style="font-weight:normal;font-size:629.05145264px;font-family:Marta;letter-spacing:47.1788559px;fill:#132651;stroke-width:26.21047783" id="path3909"/>
    <path d="m 2039.6285,1786.724 -54.7275,20.7587 v 345.9783 l 53.4694,20.7587 -4.4034,26.4202 h -166.0696 l -4.4033,-26.4202 54.7275,-20.7587 v -166.6986 h -211.9904 v 166.6986 l 53.4694,20.7587 -4.4034,26.4202 h -164.8114 l -5.0325,-26.4202 54.0985,-20.7587 v -345.9783 l -54.7275,-20.7587 4.4033,-26.4201 h 167.3277 l 4.4034,26.4201 -54.7275,20.7587 v 152.8595 h 211.9904 v -152.8595 l -54.7275,-20.7587 4.4033,-26.4201 h 167.3277 z" style="font-weight:normal;font-size:629.05145264px;font-family:Marta;letter-spacing:47.1788559px;fill:#132651;stroke-width:26.21047783" id="path3911"/>
    <path d="m 2320.6475,1760.3039 54.7274,-10.6939 141.5366,403.851 54.0984,20.7587 -5.0324,26.4202 h -171.102 l -4.4033,-26.4202 54.0984,-20.7587 -35.2269,-101.2773 h -164.8115 l -35.8559,101.2773 64.7923,20.7587 -4.4034,26.4202 h -143.4237 l -4.4034,-26.4202 54.0985,-20.7587 z m 15.7262,48.4369 -81.7767,217.0228 h 145.3109 l -63.5342,-184.9411 z" style="font-weight:normal;font-size:629.05145264px;font-family:Marta;letter-spacing:47.1788559px;fill:#132651;stroke-width:26.21047783" id="path3913"/>
    <path d="m 3103.3643,1786.724 -54.7274,20.7587 v 345.9783 l 53.4693,20.7587 -4.4033,26.4202 h -166.0696 l -4.4034,-26.4202 54.7275,-20.7587 v -166.6986 h -211.9903 v 166.6986 l 53.4693,20.7587 -4.4033,26.4202 h -164.8115 l -5.0324,-26.4202 54.0984,-20.7587 v -345.9783 l -54.7275,-20.7587 4.4034,-26.4201 h 167.3277 l 4.4033,26.4201 -54.7274,20.7587 v 152.8595 h 211.9903 v -152.8595 l -54.7275,-20.7587 4.4034,-26.4201 h 167.3277 z" style="font-weight:normal;font-size:629.05145264px;font-family:Marta;letter-spacing:47.1788559px;fill:#132651;stroke-width:26.21047783" id="path3915"/>
    <path d="m 3437.2236,2180.5102 q 42.1465,0 79.8895,-11.9519 l 32.0817,-88.6963 26.4201,4.4034 v 89.9543 q -23.2749,16.9844 -61.647,27.0492 -37.7431,10.0649 -76.7443,10.0649 -59.1308,0 -103.7935,-19.5006 -44.6626,-19.5006 -70.4537,-52.8403 -25.1621,-33.3398 -37.7431,-72.97 -11.952,-39.6303 -11.952,-85.551 0,-44.6627 13.8391,-84.922 13.8392,-40.8883 40.2593,-73.599 26.4202,-33.3397 70.4538,-52.8403 44.0336,-19.5006 99.3901,-19.5006 74.2281,0 138.3913,37.114 v 85.551 l -26.4201,4.4034 -30.1945,-84.2929 q -41.5174,-11.952 -81.7767,-11.952 -76.1152,0 -113.2292,48.437 -36.485,47.8079 -36.485,148.4561 0,203.1836 149.7142,203.1836 z" style="font-weight:normal;font-size:629.05145264px;font-family:Marta;letter-spacing:47.1788559px;fill:#132651;stroke-width:26.21047783" id="path3917"/>
  </g>
</svg>